<?xml version="1.0" standalone="no"?>
<!DOCTYPE svg PUBLIC "-//W3C//DTD SVG 20010904//EN"
 "http://www.w3.org/TR/2001/REC-SVG-20010904/DTD/svg10.dtd">
<svg version="1.0" xmlns="http://www.w3.org/2000/svg"
 width="500.000000pt" height="500.000000pt" viewBox="0 0 500.000000 500.000000"
 preserveAspectRatio="xMidYMid meet">

<g transform="translate(0.000000,500.000000) scale(0.100000,-0.100000)"
fill="#000000" stroke="none">
<path d="M1106 3595 c-46 -27 -56 -41 -56 -78 0 -37 23 -44 60 -17 33 24 67
22 94 -5 25 -26 36 -17 36 30 0 42 -2 46 -43 70 -51 29 -42 29 -91 0z"/>
<path d="M2965 3529 c-120 -14 -252 -83 -380 -199 -133 -122 -215 -232 -294
-402 -46 -100 -61 -107 -129 -64 -85 54 -132 128 -132 207 0 86 23 148 75 201
25 26 45 51 45 57 0 45 -108 -63 -154 -154 -21 -40 -29 -74 -33 -134 -7 -93 8
-145 57 -198 31 -35 127 -83 164 -83 33 0 35 -6 20 -57 -32 -106 -8 -251 56
-338 78 -105 134 -132 256 -121 93 8 146 25 238 74 127 69 244 163 317 255 21
26 40 44 42 40 3 -5 8 -37 11 -73 4 -36 13 -123 21 -193 17 -155 9 -210 -41
-262 -36 -38 -92 -54 -130 -36 -31 14 -59 1 -61 -28 -2 -30 27 -42 80 -32 52
9 105 40 164 94 90 83 105 147 80 342 -32 240 -32 259 -1 398 4 18 2 27 -6 27
-23 0 -89 -61 -95 -88 -3 -15 -28 -59 -56 -97 -27 -39 -57 -81 -66 -95 -104
-154 -289 -259 -459 -261 -109 -1 -186 54 -244 176 -21 43 -24 65 -25 160 l0
110 57 7 c191 24 427 143 666 336 148 119 202 195 202 280 0 109 -96 168 -245
151z m86 -74 c55 -29 86 -130 61 -197 -17 -43 -150 -168 -256 -243 -101 -70
-252 -138 -372 -170 -72 -19 -164 -20 -164 -2 0 24 97 224 144 296 67 104 195
227 286 276 118 62 229 77 301 40z"/>
<path d="M1045 3425 c-44 -24 -127 -67 -185 -96 -58 -29 -108 -58 -112 -64 -5
-5 -7 -91 -5 -190 l2 -180 95 0 95 0 3 125 c3 141 -7 124 104 183 35 19 73 40
85 47 19 12 30 9 106 -29 158 -80 146 -65 149 -178 l3 -98 93 -3 92 -3 0 165
0 164 -27 11 c-16 5 -41 18 -58 27 -16 9 -39 21 -49 27 -11 5 -76 38 -145 73
-68 35 -134 64 -145 63 -12 -1 -57 -21 -101 -44z"/>
<path d="M3671 3370 c-135 -49 -211 -147 -211 -272 0 -57 2 -63 36 -94 19 -19
42 -34 50 -34 18 0 74 28 74 37 0 4 -12 20 -27 35 -24 25 -27 36 -26 88 2 71
23 118 75 173 37 39 38 40 95 35 69 -7 124 -37 153 -84 26 -41 29 -134 6 -188
-23 -56 -103 -128 -188 -170 -43 -21 -78 -42 -78 -48 0 -18 33 -20 66 -4 45
21 82 20 151 -4 126 -44 174 -110 181 -248 6 -114 -9 -160 -69 -217 -74 -69
-165 -107 -269 -112 -111 -6 -172 15 -212 72 -16 22 -31 57 -34 77 -10 56 22
143 71 194 40 42 43 44 101 44 48 0 65 -4 83 -21 23 -21 23 -30 6 -86 -9 -28
11 -31 54 -8 34 17 52 75 37 117 -26 73 -228 65 -335 -12 -76 -56 -136 -179
-124 -257 7 -45 34 -102 59 -125 28 -25 137 -58 191 -58 207 0 470 135 524
270 9 22 14 73 14 140 0 96 -3 110 -29 162 -27 53 -34 59 -110 96 -44 22 -94
44 -110 49 l-29 9 26 17 c99 65 155 166 143 263 -17 149 -177 224 -345 164z"/>
<path d="M570 3135 l-85 -52 -5 -129 c-5 -126 -5 -128 -29 -134 -28 -6 -70
-79 -71 -120 0 -30 35 -90 52 -90 38 -1 43 -17 48 -151 l5 -131 40 -23 c22
-12 63 -36 90 -53 36 -22 52 -27 57 -19 4 7 8 92 8 189 0 156 2 177 16 180 9
2 93 2 185 0 l169 -3 0 -167 0 -167 43 -23 c23 -12 51 -22 62 -22 21 0 85 35
97 54 4 6 8 77 8 158 0 106 3 149 13 155 15 9 340 9 356 -1 7 -5 11 -62 11
-180 0 -95 3 -175 6 -179 4 -3 25 7 48 22 22 16 61 40 86 54 l45 25 2 108 c4
137 7 149 40 163 18 7 36 29 50 57 l22 45 -27 52 c-15 29 -37 56 -49 62 -22 9
-23 15 -23 123 0 119 -7 147 -43 162 -12 6 -50 28 -84 49 -34 21 -64 36 -67
33 -3 -3 -6 -86 -6 -184 l0 -178 -195 0 -195 0 0 158 c0 141 -2 161 -18 175
-10 10 -24 17 -30 17 -7 0 -21 5 -32 12 -16 10 -27 8 -67 -14 l-48 -27 -3
-160 -2 -161 -185 0 -185 0 0 163 c0 155 -5 208 -19 206 -3 -1 -44 -25 -91
-54z"/>
<path d="M35 3079 c-11 -17 0 -20 21 -4 17 13 17 14 2 15 -9 0 -20 -5 -23 -11z"/>
<path d="M4968 3073 c6 -2 18 -2 25 0 6 3 1 5 -13 5 -14 0 -19 -2 -12 -5z"/>
<path d="M4833 3043 c9 -2 25 -2 35 0 9 3 1 5 -18 5 -19 0 -27 -2 -17 -5z"/>
<path d="M4608 3033 c7 -3 16 -2 19 1 4 3 -2 6 -13 5 -11 0 -14 -3 -6 -6z"/>
<path d="M4975 3010 c-3 -5 1 -10 9 -10 9 0 16 5 16 10 0 6 -4 10 -9 10 -6 0
-13 -4 -16 -10z"/>
<path d="M4758 2973 c7 -3 16 -2 19 1 4 3 -2 6 -13 5 -11 0 -14 -3 -6 -6z"/>
<path d="M4488 2913 c7 -3 16 -2 19 1 4 3 -2 6 -13 5 -11 0 -14 -3 -6 -6z"/>
<path d="M4560 2898 c19 -5 46 -11 60 -12 14 -2 16 -1 6 1 -16 4 -17 7 -5 14
9 6 -5 8 -41 8 -53 -1 -54 -1 -20 -11z"/>
<path d="M4948 2903 c7 -3 16 -2 19 1 4 3 -2 6 -13 5 -11 0 -14 -3 -6 -6z"/>
<path d="M4765 2860 c45 -11 87 -11 80 0 -3 6 -30 9 -58 9 -45 -1 -48 -2 -22
-9z"/>
<path d="M4920 2859 c53 -24 80 -28 80 -13 0 8 -8 14 -19 14 -10 0 -34 2 -52
5 -32 5 -32 5 -9 -6z"/>
<path d="M198 2823 c7 -3 16 -2 19 1 4 3 -2 6 -13 5 -11 0 -14 -3 -6 -6z"/>
<path d="M4198 2823 c6 -2 18 -2 25 0 6 3 1 5 -13 5 -14 0 -19 -2 -12 -5z"/>
<path d="M4888 2763 c7 -3 16 -2 19 1 4 3 -2 6 -13 5 -11 0 -14 -3 -6 -6z"/>
<path d="M4968 2763 c6 -2 18 -2 25 0 6 3 1 5 -13 5 -14 0 -19 -2 -12 -5z"/>
<path d="M4960 2689 c0 -5 5 -7 10 -4 6 3 10 8 10 11 0 2 -4 4 -10 4 -5 0 -10
-5 -10 -11z"/>
<path d="M4718 2563 c6 -2 18 -2 25 0 6 3 1 5 -13 5 -14 0 -19 -2 -12 -5z"/>
<path d="M745 2508 c-3 -8 -4 -92 -3 -188 l3 -173 65 -34 c36 -18 68 -33 71
-33 4 0 37 -18 74 -40 36 -23 78 -46 93 -51 15 -6 34 -16 42 -24 26 -22 73
-26 105 -9 97 53 162 84 173 84 6 0 12 3 12 8 0 4 12 12 28 18 15 7 34 14 42
18 8 3 38 19 65 35 l50 28 3 157 3 157 -93 -3 -93 -3 -3 -97 -3 -97 -57 -27
c-31 -16 -73 -38 -92 -49 -56 -34 -76 -36 -135 -9 -30 14 -57 29 -60 34 -3 5
-26 18 -50 29 l-44 20 -3 128 -3 128 -93 3 c-69 2 -94 -1 -97 -10z"/>
<path d="M1050 1887 c0 -35 12 -49 66 -79 29 -16 32 -16 75 5 41 20 44 25 47
65 4 48 -8 53 -48 22 -14 -11 -32 -20 -40 -20 -8 0 -26 9 -40 20 -39 31 -60
26 -60 -13z"/>
</g>
</svg>
