<?xml version="1.0" standalone="no"?>
<!DOCTYPE svg PUBLIC "-//W3C//DTD SVG 1.0//EN" "http://www.w3.org/TR/2001/REC-SVG-20010904/DTD/svg10.dtd">
<svg xmlns="http://www.w3.org/2000/svg" xmlns:xlink="http://www.w3.org/1999/xlink" id="body_1" width="3149" height="735">

<g transform="matrix(1.3331921 0 0 1.3339382 0 0)">
	<g transform="matrix(0.1 0 -0 -0.1 0 551)">
        <path d="M3060 5210C 3008 5178 2946 5139 2923 5123L2923 5123L2880 5095L2880 4958C 2880 4882 2883 4820 2888 4820C 2908 4821 2985 4854 3071 4899L3071 4899L3167 4950L3308 4877C 3421 4819 3451 4807 3461 4818C 3471 4827 3471 4833 3462 4842C 3454 4850 3450 4894 3450 4975C 3450 5119 3457 5109 3303 5195C 3246 5226 3198 5256 3194 5261C 3183 5279 3154 5267 3060 5210z" stroke="none" fill="#000000" fill-rule="nonzero" />
        <path d="M2985 4794C 2897 4747 2652 4619 2440 4508C 2228 4398 2047 4300 2037 4292C 2021 4278 2020 4243 2022 3766L2022 3766L2025 3255L2320 3255L2615 3255L2620 3605L2625 3955L2835 4068C 2951 4130 3073 4195 3107 4212L3107 4212L3169 4244L3442 4105C 3592 4029 3721 3963 3727 3957C 3736 3950 3740 3876 3742 3671L3742 3671L3745 3395L4035 3395L4325 3395L4328 3841L4330 4287L4128 4390C 4016 4447 3921 4496 3915 4500C 3910 4504 3779 4571 3625 4650C 3471 4728 3309 4812 3264 4836C 3219 4860 3174 4880 3164 4879C 3154 4879 3073 4840 2985 4794z" stroke="none" fill="#000000" fill-rule="nonzero" />
        <path d="M22183 4416C 22002 4372 21849 4214 21811 4032C 21761 3793 21892 3551 22121 3459C 22203 3426 22357 3421 22447 3448C 22565 3484 22654 3551 22721 3654C 22828 3818 22828 4048 22720 4205C 22599 4381 22386 4465 22183 4416zM22477 4285C 22560 4244 22624 4179 22667 4092C 22692 4041 22695 4025 22695 3930C 22695 3832 22693 3820 22663 3760C 22622 3677 22553 3608 22470 3567C 22410 3537 22398 3535 22300 3535C 22205 3535 22189 3538 22138 3563C 21961 3650 21868 3839 21914 4020C 21943 4131 22001 4213 22092 4267C 22214 4341 22350 4347 22477 4285z" stroke="none" fill="#000000" fill-rule="nonzero" />
        <path d="M22080 3941L22080 3680L22150 3680L22220 3680L22220 3780C 22220 3889 22219 3887 22282 3870C 22315 3861 22323 3851 22365 3770L22365 3770L22411 3680L22480 3680C 22519 3680 22550 3683 22550 3686C 22550 3689 22527 3737 22499 3792C 22465 3857 22439 3895 22424 3902C 22393 3916 22394 3921 22430 3942C 22510 3987 22508 4127 22427 4175C 22400 4192 22372 4195 22238 4198L22238 4198L22080 4202L22080 3941zM22331 4090C 22344 4082 22350 4069 22350 4043C 22350 3990 22327 3970 22268 3970L22268 3970L22220 3970L22220 4035L22220 4100L22266 4100C 22291 4100 22320 4095 22331 4090z" stroke="none" fill="#000000" fill-rule="nonzero" />
        <path d="M1735 4036C 1385 3832 1345 3808 1332 3796C 1322 3786 1319 3703 1317 3429L1317 3429L1315 3075L1247 3072L1178 3069L1143 2992C 1124 2950 1091 2878 1069 2833C 1027 2744 1025 2735 1041 2717C 1047 2710 1080 2651 1114 2585L1114 2585L1177 2465L1246 2460L1315 2455L1318 2102L1320 1750L1378 1713C 1409 1693 1469 1659 1510 1638C 1551 1617 1587 1595 1590 1591C 1599 1576 1858 1423 1884 1416L1884 1416L1910 1410L1912 1932L1915 2455L2175 2458C 2318 2460 2535 2458 2657 2455L2657 2455L2880 2448L2882 1998L2885 1547L3031 1472L3177 1397L3198 1418C 3210 1430 3232 1443 3247 1446C 3263 1450 3319 1475 3373 1502L3373 1502L3470 1550L3470 2000L3470 2450L3963 2448L4455 2445L4458 1928C 4460 1348 4455 1385 4533 1438C 4556 1454 4618 1492 4670 1523C 4723 1553 4774 1588 4784 1599C 4795 1611 4810 1620 4819 1621C 4828 1621 4880 1649 4935 1684L4935 1684L5035 1747L5040 2096L5045 2445L5102 2448C 5166 2451 5161 2446 5240 2595C 5263 2639 5291 2691 5302 2711L5302 2711L5323 2748L5255 2881C 5218 2955 5181 3022 5174 3031C 5166 3039 5160 3052 5160 3058C 5160 3064 5138 3070 5108 3072L5108 3072L5055 3075L5050 3429C 5046 3729 5043 3784 5030 3792C 5022 3797 4894 3873 4746 3961C 4596 4051 4474 4118 4469 4113C 4464 4108 4459 3873 4458 3590L4458 3590L4455 3075L3958 3072L3460 3070L3458 3517L3455 3965L3375 4007C 3331 4030 3288 4049 3279 4050C 3270 4050 3244 4064 3220 4081L3220 4081L3178 4112L3031 4038L2885 3965L2882 3517L2880 3070L2397 3072L1915 3075L1912 3595C 1911 3880 1906 4117 1902 4121C 1898 4125 1823 4087 1735 4036z" stroke="none" fill="#000000" fill-rule="nonzero" />
        <path d="M9784 3905C 9338 3836 9029 3522 8923 3029C 8901 2925 8897 2565 8918 2458C 8966 2204 9058 2022 9220 1859C 9417 1661 9661 1570 9960 1583C 10214 1595 10351 1654 10522 1825L10522 1825L10607 1911L10619 1838C 10625 1798 10635 1737 10641 1703L10641 1703L10652 1640L10806 1640L10960 1640L10960 2235L10960 2830L10500 2830L10040 2830L10040 2640L10040 2450L10296 2450C 10534 2450 10551 2449 10546 2433C 10543 2423 10536 2395 10530 2370C 10510 2292 10448 2188 10385 2125C 10107 1847 9570 1964 9431 2334C 9339 2580 9356 2982 9467 3209C 9516 3309 9628 3423 9720 3468C 9930 3571 10215 3539 10370 3394C 10420 3348 10490 3227 10490 3189C 10490 3171 10502 3170 10720 3170C 10935 3170 10950 3171 10950 3188C 10950 3234 10904 3373 10862 3455C 10802 3572 10665 3714 10545 3784C 10349 3898 10046 3946 9784 3905z" stroke="none" fill="#000000" fill-rule="nonzero" />
        <path d="M14368 3889C 14142 3856 13929 3737 13787 3566C 13675 3429 13591 3234 13554 3025C 13530 2887 13529 2584 13553 2445C 13630 2004 13876 1717 14265 1613C 14355 1589 14383 1587 14545 1586C 14743 1586 14799 1595 14938 1651C 15192 1752 15393 1994 15470 2289C 15503 2411 15524 2400 15262 2400L15262 2400L15035 2400L15005 2313C 14942 2126 14839 2023 14678 1985C 14409 1922 14164 2062 14067 2335C 13994 2542 13991 2895 14061 3110C 14161 3415 14390 3557 14681 3496C 14850 3460 14954 3359 15015 3172L15015 3172L15032 3120L15267 3120L15502 3120L15495 3173C 15462 3421 15278 3675 15043 3794C 14873 3880 14583 3921 14368 3889z" stroke="none" fill="#000000" fill-rule="nonzero" />
        <path d="M5920 2750L5920 1640L6150 1640L6380 1640L6380 2135L6380 2630L6815 2630L7250 2630L7250 2135L7250 1640L7480 1640L7710 1640L7710 2750L7710 3860L7480 3860L7250 3860L7250 3435L7250 3010L6815 3010L6380 3010L6380 3435L6380 3860L6150 3860L5920 3860L5920 2750z" stroke="none" fill="#000000" fill-rule="nonzero" />
        <path d="M8110 2750L8110 1640L8340 1640L8570 1640L8570 2750L8570 3860L8340 3860L8110 3860L8110 2750z" stroke="none" fill="#000000" fill-rule="nonzero" />
        <path d="M11400 2750L11400 1640L11630 1640L11860 1640L11860 2135L11860 2630L12295 2630L12730 2630L12730 2135L12730 1640L12960 1640L13190 1640L13190 2750L13190 3860L12960 3860L12730 3860L12730 3435L12730 3010L12295 3010L11860 3010L11860 3435L11860 3860L11630 3860L11400 3860L11400 2750z" stroke="none" fill="#000000" fill-rule="nonzero" />
        <path d="M15850 2750L15850 1640L16635 1640L17420 1640L17420 1835L17420 2030L16870 2030L16320 2030L16320 2945L16320 3860L16085 3860L15850 3860L15850 2750z" stroke="none" fill="#000000" fill-rule="nonzero" />
        <path d="M17730 3158C 17730 2757 17735 2404 17741 2337C 17754 2187 17788 2050 17836 1958C 17884 1866 17999 1747 18090 1697C 18358 1549 18853 1540 19128 1679C 19359 1796 19476 1989 19510 2310C 19515 2364 19520 2720 19520 3133L19520 3133L19520 3860L19280 3860L19040 3860L19040 3098C 19040 2274 19039 2256 18986 2152C 18939 2059 18858 2002 18740 1980C 18627 1958 18478 1975 18392 2019C 18304 2064 18242 2166 18220 2302C 18214 2341 18210 2652 18210 3113L18210 3113L18210 3860L17970 3860L17730 3860L17730 3158z" stroke="none" fill="#000000" fill-rule="nonzero" />
        <path d="M19980 2751L19980 1640L20533 1640C 21214 1640 21287 1647 21457 1730C 21657 1828 21786 2035 21798 2276C 21809 2518 21710 2710 21526 2800L21526 2800L21459 2833L21508 2861C 21659 2947 21740 3117 21726 3320C 21715 3480 21665 3595 21564 3689C 21492 3757 21410 3800 21295 3832C 21217 3854 21199 3854 20598 3858L20598 3858L19980 3861L19980 2751zM21054 3470C 21217 3446 21278 3384 21279 3240C 21279 3129 21251 3076 21170 3035C 21092 2996 21035 2990 20720 2990L20720 2990L20420 2990L20420 3235L20420 3480L20703 3480C 20858 3480 21016 3475 21054 3470zM21163 2581C 21234 2553 21274 2520 21303 2466C 21321 2432 21325 2409 21325 2330C 21325 2190 21286 2114 21190 2065C 21115 2027 21045 2020 20723 2020L20723 2020L20420 2020L20420 2316L20420 2612L20763 2608C 21091 2604 21107 2603 21163 2581z" stroke="none" fill="#000000" fill-rule="nonzero" />
        <path d="M2032 2288C 2023 2279 2020 2154 2020 1770C 2020 1300 2021 1262 2038 1248C 2055 1232 2251 1132 2443 1039C 2502 1010 2565 976 2582 964C 2600 951 2619 940 2626 940C 2632 940 2644 933 2651 924C 2658 915 2730 875 2811 836C 2891 796 2970 754 2986 743C 3002 732 3048 706 3089 685L3089 685L3163 648L3204 666C 3227 676 3264 696 3288 712C 3312 727 3337 740 3344 740C 3352 740 3381 756 3409 775C 3437 794 3467 810 3475 810C 3484 810 3597 865 3728 932C 3858 1000 4044 1096 4140 1145L4140 1145L4315 1235L4320 1675C 4323 1917 4323 2117 4320 2120C 4317 2123 4190 2124 4038 2122L4038 2122L3760 2119L3760 1849L3760 1579L3683 1542C 3640 1522 3604 1502 3602 1498C 3600 1494 3592 1490 3584 1490C 3564 1490 3410 1412 3410 1401C 3410 1396 3397 1390 3382 1387C 3367 1384 3342 1370 3327 1356C 3311 1342 3289 1330 3277 1330C 3265 1330 3242 1321 3225 1310C 3185 1283 3169 1285 3107 1320C 3077 1337 3047 1350 3038 1350C 3030 1350 3015 1359 3005 1370C 2995 1381 2978 1390 2968 1390C 2944 1390 2870 1427 2870 1440C 2870 1450 2643 1570 2623 1570C 2614 1570 2610 1586 2609 1623C 2609 1651 2606 1815 2604 1985L2604 1985L2599 2295L2322 2298C 2114 2300 2041 2297 2032 2288z" stroke="none" fill="#000000" fill-rule="nonzero" />
        <path d="M2880 691C 2863 659 2867 448 2885 423C 2893 411 2952 371 3015 334C 3079 297 3133 263 3136 258C 3146 242 3179 251 3198 275C 3209 289 3225 300 3233 300C 3241 300 3292 326 3345 358L3345 358L3443 415L3441 544C 3440 615 3437 677 3434 682C 3424 698 3384 689 3345 660C 3323 644 3273 614 3234 594L3234 594L3162 557L3119 579C 3095 592 3073 605 3070 609C 3067 613 3026 637 2978 663C 2895 707 2890 709 2880 691z" stroke="none" fill="#000000" fill-rule="nonzero" />
	</g>
</g>
</svg>