<?xml version="1.0" standalone="no"?>
<!DOCTYPE svg PUBLIC "-//W3C//DTD SVG 20010904//EN"
 "http://www.w3.org/TR/2001/REC-SVG-20010904/DTD/svg10.dtd">
<svg version="1.0" xmlns="http://www.w3.org/2000/svg"
 width="2362.000000pt" height="551.000000pt" viewBox="0 0 2362.000000 551.000000"
 preserveAspectRatio="xMidYMid meet">

<g transform="translate(0.000000,551.000000) scale(0.100000,-0.100000)"
fill="#000000" stroke="none">
<path d="M3060 5210 c-52 -32 -114 -71 -137 -87 l-43 -28 0 -137 c0 -76 3
-138 8 -138 20 1 97 34 183 79 l96 51 141 -73 c113 -58 143 -70 153 -59 10 9
10 15 1 24 -8 8 -12 52 -12 133 0 144 7 134 -147 220 -57 31 -105 61 -109 66
-11 18 -40 6 -134 -51z"/>
<path d="M2985 4794 c-88 -47 -333 -175 -545 -286 -212 -110 -393 -208 -403
-216 -16 -14 -17 -49 -15 -526 l3 -511 295 0 295 0 5 350 5 350 210 113 c116
62 238 127 272 144 l62 32 273 -139 c150 -76 279 -142 285 -148 9 -7 13 -81
15 -286 l3 -276 290 0 290 0 3 446 2 446 -202 103 c-112 57 -207 106 -213 110
-5 4 -136 71 -290 150 -154 78 -316 162 -361 186 -45 24 -90 44 -100 43 -10 0
-91 -39 -179 -85z"/>
<path d="M22183 4416 c-181 -44 -334 -202 -372 -384 -50 -239 81 -481 310
-573 82 -33 236 -38 326 -11 118 36 207 103 274 206 107 164 107 394 -1 551
-121 176 -334 260 -537 211z m294 -131 c83 -41 147 -106 190 -193 25 -51 28
-67 28 -162 0 -98 -2 -110 -32 -170 -41 -83 -110 -152 -193 -193 -60 -30 -72
-32 -170 -32 -95 0 -111 3 -162 28 -177 87 -270 276 -224 457 29 111 87 193
178 247 122 74 258 80 385 18z"/>
<path d="M22080 3941 l0 -261 70 0 70 0 0 100 c0 109 -1 107 62 90 33 -9 41
-19 83 -100 l46 -90 69 0 c39 0 70 3 70 6 0 3 -23 51 -51 106 -34 65 -60 103
-75 110 -31 14 -30 19 6 40 80 45 78 185 -3 233 -27 17 -55 20 -189 23 l-158
4 0 -261z m251 149 c13 -8 19 -21 19 -47 0 -53 -23 -73 -82 -73 l-48 0 0 65 0
65 46 0 c25 0 54 -5 65 -10z"/>
<path d="M1735 4036 c-350 -204 -390 -228 -403 -240 -10 -10 -13 -93 -15 -367
l-2 -354 -68 -3 -69 -3 -35 -77 c-19 -42 -52 -114 -74 -159 -42 -89 -44 -98
-28 -116 6 -7 39 -66 73 -132 l63 -120 69 -5 69 -5 3 -353 2 -352 58 -37 c31
-20 91 -54 132 -75 41 -21 77 -43 80 -47 9 -15 268 -168 294 -175 l26 -6 2
522 3 523 260 3 c143 2 360 0 482 -3 l223 -7 2 -450 3 -451 146 -75 146 -75
21 21 c12 12 34 25 49 28 16 4 72 29 126 56 l97 48 0 450 0 450 493 -2 492 -3
3 -517 c2 -580 -3 -543 75 -490 23 16 85 54 137 85 53 30 104 65 114 76 11 12
26 21 35 22 9 0 61 28 116 63 l100 63 5 349 5 349 57 3 c64 3 59 -2 138 147
23 44 51 96 62 116 l21 37 -68 133 c-37 74 -74 141 -81 150 -8 8 -14 21 -14
27 0 6 -22 12 -52 14 l-53 3 -5 354 c-4 300 -7 355 -20 363 -8 5 -136 81 -284
169 -150 90 -272 157 -277 152 -5 -5 -10 -240 -11 -523 l-3 -515 -497 -3 -498
-2 -2 447 -3 448 -80 42 c-44 23 -87 42 -96 43 -9 0 -35 14 -59 31 l-42 31
-147 -74 -146 -73 -3 -448 -2 -447 -483 2 -482 3 -3 520 c-1 285 -6 522 -10
526 -4 4 -79 -34 -167 -85z"/>
<path d="M9784 3905 c-446 -69 -755 -383 -861 -876 -22 -104 -26 -464 -5 -571
48 -254 140 -436 302 -599 197 -198 441 -289 740 -276 254 12 391 71 562 242
l85 86 12 -73 c6 -40 16 -101 22 -135 l11 -63 154 0 154 0 0 595 0 595 -460 0
-460 0 0 -190 0 -190 256 0 c238 0 255 -1 250 -17 -3 -10 -10 -38 -16 -63 -20
-78 -82 -182 -145 -245 -278 -278 -815 -161 -954 209 -92 246 -75 648 36 875
49 100 161 214 253 259 210 103 495 71 650 -74 50 -46 120 -167 120 -205 0
-18 12 -19 230 -19 215 0 230 1 230 18 0 46 -46 185 -88 267 -60 117 -197 259
-317 329 -196 114 -499 162 -761 121z"/>
<path d="M14368 3889 c-226 -33 -439 -152 -581 -323 -112 -137 -196 -332 -233
-541 -24 -138 -25 -441 -1 -580 77 -441 323 -728 712 -832 90 -24 118 -26 280
-27 198 0 254 9 393 65 254 101 455 343 532 638 33 122 54 111 -208 111 l-227
0 -30 -87 c-63 -187 -166 -290 -327 -328 -269 -63 -514 77 -611 350 -73 207
-76 560 -6 775 100 305 329 447 620 386 169 -36 273 -137 334 -324 l17 -52
235 0 235 0 -7 53 c-33 248 -217 502 -452 621 -170 86 -460 127 -675 95z"/>
<path d="M5920 2750 l0 -1110 230 0 230 0 0 495 0 495 435 0 435 0 0 -495 0
-495 230 0 230 0 0 1110 0 1110 -230 0 -230 0 0 -425 0 -425 -435 0 -435 0 0
425 0 425 -230 0 -230 0 0 -1110z"/>
<path d="M8110 2750 l0 -1110 230 0 230 0 0 1110 0 1110 -230 0 -230 0 0
-1110z"/>
<path d="M11400 2750 l0 -1110 230 0 230 0 0 495 0 495 435 0 435 0 0 -495 0
-495 230 0 230 0 0 1110 0 1110 -230 0 -230 0 0 -425 0 -425 -435 0 -435 0 0
425 0 425 -230 0 -230 0 0 -1110z"/>
<path d="M15850 2750 l0 -1110 785 0 785 0 0 195 0 195 -550 0 -550 0 0 915 0
915 -235 0 -235 0 0 -1110z"/>
<path d="M17730 3158 c0 -401 5 -754 11 -821 13 -150 47 -287 95 -379 48 -92
163 -211 254 -261 268 -148 763 -157 1038 -18 231 117 348 310 382 631 5 54
10 410 10 823 l0 727 -240 0 -240 0 0 -762 c0 -824 -1 -842 -54 -946 -47 -93
-128 -150 -246 -172 -113 -22 -262 -5 -348 39 -88 45 -150 147 -172 283 -6 39
-10 350 -10 811 l0 747 -240 0 -240 0 0 -702z"/>
<path d="M19980 2751 l0 -1111 553 0 c681 0 754 7 924 90 200 98 329 305 341
546 11 242 -88 434 -272 524 l-67 33 49 28 c151 86 232 256 218 459 -11 160
-61 275 -162 369 -72 68 -154 111 -269 143 -78 22 -96 22 -697 26 l-618 3 0
-1110z m1074 719 c163 -24 224 -86 225 -230 0 -111 -28 -164 -109 -205 -78
-39 -135 -45 -450 -45 l-300 0 0 245 0 245 283 0 c155 0 313 -5 351 -10z m109
-889 c71 -28 111 -61 140 -115 18 -34 22 -57 22 -136 0 -140 -39 -216 -135
-265 -75 -38 -145 -45 -467 -45 l-303 0 0 296 0 296 343 -4 c328 -4 344 -5
400 -27z"/>
<path d="M2032 2288 c-9 -9 -12 -134 -12 -518 0 -470 1 -508 18 -522 17 -16
213 -116 405 -209 59 -29 122 -63 139 -75 18 -13 37 -24 44 -24 6 0 18 -7 25
-16 7 -9 79 -49 160 -88 80 -40 159 -82 175 -93 16 -11 62 -37 103 -58 l74
-37 41 18 c23 10 60 30 84 46 24 15 49 28 56 28 8 0 37 16 65 35 28 19 58 35
66 35 9 0 122 55 253 122 130 68 316 164 412 213 l175 90 5 440 c3 242 3 442
0 445 -3 3 -130 4 -282 2 l-278 -3 0 -270 0 -270 -77 -37 c-43 -20 -79 -40
-81 -44 -2 -4 -10 -8 -18 -8 -20 0 -174 -78 -174 -89 0 -5 -13 -11 -28 -14
-15 -3 -40 -17 -55 -31 -16 -14 -38 -26 -50 -26 -12 0 -35 -9 -52 -20 -40 -27
-56 -25 -118 10 -30 17 -60 30 -69 30 -8 0 -23 9 -33 20 -10 11 -27 20 -37 20
-24 0 -98 37 -98 50 0 10 -227 130 -247 130 -9 0 -13 16 -14 53 0 28 -3 192
-5 362 l-5 310 -277 3 c-208 2 -281 -1 -290 -10z"/>
<path d="M2880 691 c-17 -32 -13 -243 5 -268 8 -12 67 -52 130 -89 64 -37 118
-71 121 -76 10 -16 43 -7 62 17 11 14 27 25 35 25 8 0 59 26 112 58 l98 57 -2
129 c-1 71 -4 133 -7 138 -10 16 -50 7 -89 -22 -22 -16 -72 -46 -111 -66 l-72
-37 -43 22 c-24 13 -46 26 -49 30 -3 4 -44 28 -92 54 -83 44 -88 46 -98 28z"/>
</g>
</svg>
