<?xml version="1.0" encoding="UTF-8"?>
<svg xmlns="http://www.w3.org/2000/svg" xmlns:xlink="http://www.w3.org/1999/xlink" width="300px" height="300px" viewBox="0 0 300 300" version="1.1">
<g id="surface1">
<path style=" stroke:none;fill-rule:nonzero;fill:rgb(0%,0%,0%);fill-opacity:1;" d="M 123.898438 25.25 C 123.75 25.398438 117.25 27.699219 109.449219 30.449219 C 93.5 35.949219 92 36.601562 87.648438 40.101562 C 82.300781 44.449219 78.648438 49.449219 70 64.25 C 66.601562 70 62.351562 77.351562 60.449219 80.5 C 58.601562 83.648438 51.199219 96.5 44 109 C 36.800781 121.5 30.699219 132 30.449219 132.300781 C 30.101562 132.699219 33.5 135.050781 41.351562 139.898438 C 47.648438 143.75 58.351562 150.398438 65.25 154.699219 C 73.199219 159.648438 77.898438 162.300781 78.25 162 C 78.648438 161.699219 78.851562 171.800781 78.949219 197.398438 C 79.050781 217.101562 79.148438 234.5 79.148438 236 C 79.199219 237.5 79.148438 246.5 79.050781 255.949219 C 78.949219 267.75 79.050781 273.25 79.449219 273.648438 C 79.851562 274.050781 81.25 274 84.449219 273.601562 C 93.449219 272.398438 99.050781 272.300781 104 273.25 C 112.648438 274.949219 125.800781 273.550781 130.75 270.398438 C 137.300781 266.25 140.300781 265.449219 145.25 266.5 C 151.648438 267.851562 153.351562 268 159.898438 267.449219 C 168.851562 266.75 170.601562 267.148438 176.699219 271.25 C 181.199219 274.25 181.648438 274.449219 185.351562 274.800781 C 187.5 275 193.5 274.898438 198.75 274.550781 C 204 274.25 211 274 214.351562 274 C 219.898438 274 220.5 273.898438 221 273.050781 C 221.351562 272.398438 221.5 254.050781 221.550781 217.398438 L 221.550781 162.75 L 236.101562 153.75 C 244.101562 148.800781 253.449219 143 256.949219 140.800781 C 260.398438 138.648438 264.351562 136.398438 265.648438 135.851562 C 268.300781 134.75 268.5 133.949219 266.25 133.699219 C 264.300781 133.5 262.550781 131.351562 262.648438 129.25 C 262.75 127.800781 262.851562 127.699219 264.449219 128 C 266.351562 128.300781 267.851562 130 268.148438 132.101562 C 268.351562 133.800781 268.699219 134.199219 269.398438 133.398438 C 269.800781 132.898438 269.050781 131.300781 266.550781 127 C 264.699219 123.851562 260.050781 115.851562 256.25 109.25 C 252.449219 102.648438 248.300781 95.449219 247 93.25 C 245.699219 91.050781 240.550781 82.148438 235.5 73.5 C 221.25 49 217.300781 43.398438 210.699219 38.699219 C 206.949219 36.050781 206.601562 35.898438 188.949219 29.800781 L 175.648438 25.199219 L 173.449219 26.601562 C 170.898438 28.199219 165.050781 30.199219 160.800781 30.949219 C 156.199219 31.800781 141.648438 31.648438 137.101562 30.699219 C 133.5 30 127.601562 27.550781 125.199219 25.75 C 124.648438 25.351562 124.050781 25.101562 123.898438 25.25 Z M 142.351562 47.601562 C 142.199219 48 142.050781 47.851562 142.050781 47.300781 C 142 46.75 142.148438 46.449219 142.300781 46.648438 C 142.449219 46.800781 142.5 47.25 142.351562 47.601562 Z M 148.148438 47.148438 C 148.351562 47 148.5 47.101562 148.5 47.449219 C 148.5 47.851562 148.199219 48 147.699219 47.800781 C 147.25 47.601562 146.601562 47.699219 146.25 48 C 145.800781 48.351562 145.199219 48.351562 144.199219 47.949219 C 142.949219 47.398438 142.898438 47.300781 143.75 47.101562 C 144.25 47 144.800781 47.148438 144.898438 47.449219 C 145 47.800781 145.351562 47.699219 145.851562 47.25 C 146.398438 46.699219 146.800781 46.601562 147.199219 47 C 147.550781 47.25 148 47.351562 148.148438 47.148438 Z M 150.5 47.550781 C 150.5 47.800781 150.300781 48 150 48 C 149.75 48 149.5 47.648438 149.5 47.199219 C 149.5 46.800781 149.75 46.601562 150 46.75 C 150.300781 46.898438 150.5 47.25 150.5 47.550781 Z M 152.550781 47.199219 C 152.800781 47.050781 153 47.199219 153 47.449219 C 153 47.75 152.550781 48 152 48 C 151 48 150.699219 47.449219 151.351562 46.800781 C 151.550781 46.601562 151.800781 46.699219 151.898438 46.949219 C 152 47.25 152.300781 47.398438 152.550781 47.199219 Z M 134 87 C 134 87.800781 134.25 88.5 134.5 88.5 C 134.800781 88.5 135 87.800781 135 87 C 135 85.851562 135.199219 85.5 136 85.5 C 136.851562 85.5 137 85.851562 137.101562 88.351562 L 137.199219 91.25 L 137.351562 88.351562 C 137.5 86.351562 137.75 85.5 138.25 85.5 C 138.648438 85.5 139.101562 85.75 139.300781 86.050781 C 139.5 86.449219 139.75 86.449219 140.148438 86.050781 C 140.898438 85.300781 143.648438 85.351562 144.398438 86.101562 C 145.449219 87.148438 145.101562 88.5 143.800781 88.5 C 142.898438 88.5 142.5 88.148438 142.351562 87.351562 C 142.25 86.75 142.101562 87.300781 142.050781 88.601562 C 142.050781 89.949219 142.199219 91 142.449219 91 C 142.699219 91 142.800781 90.550781 142.648438 90 C 142.449219 89.199219 142.648438 89 143.699219 89 C 144.851562 89 145 89.199219 145 90.699219 C 145 92.398438 144.949219 92.449219 142.898438 92.398438 C 141.699219 92.398438 140.449219 92.148438 140.148438 91.898438 C 139.699219 91.550781 139.5 91.550781 139.5 91.949219 C 139.5 92.25 138.601562 92.5 137.25 92.5 C 135.050781 92.5 135 92.449219 135 90.949219 C 135 90 134.800781 89.550781 134.449219 89.800781 C 134.148438 89.949219 134.050781 90.601562 134.199219 91.25 C 134.398438 92.101562 134.25 92.449219 133.5 92.648438 C 133 92.800781 132.449219 92.75 132.300781 92.601562 C 131.898438 92.199219 131.949219 86.25 132.351562 85.851562 C 133.148438 85 134 85.601562 134 87 Z M 147.5 86.699219 C 147.5 87.398438 147.75 88.101562 148 88.25 C 148.300781 88.449219 148.5 87.898438 148.5 87.050781 C 148.5 85.75 148.699219 85.5 149.75 85.5 C 150.601562 85.5 151 85.800781 151 86.351562 C 151.050781 87.199219 151.050781 87.199219 151.550781 86.351562 C 152.050781 85.5 154.148438 85.199219 155.699219 85.800781 C 156.898438 86.25 156.75 88.5 155.5 88.5 C 154.949219 88.5 154.5 88.148438 154.5 87.75 C 154.5 87.351562 154.300781 87 154 87 C 153.75 87 153.5 87.898438 153.5 88.949219 C 153.5 90.050781 153.75 91.101562 154 91.25 C 154.300781 91.398438 154.5 91.101562 154.5 90.550781 C 154.5 89.398438 156.449219 89 156.601562 90.101562 C 156.601562 90.449219 156.800781 89.601562 156.949219 88.25 C 157.199219 86.199219 157.398438 85.75 158.25 85.75 C 159.101562 85.75 159.25 86.148438 159.398438 88.5 C 159.5 90 159.800781 91.300781 160.050781 91.398438 C 161.199219 91.851562 160.398438 93 159 93 C 157.601562 93 157.25 92.601562 157.449219 91.25 C 157.5 90.949219 157.199219 91.148438 156.800781 91.648438 C 156.25 92.351562 155.550781 92.5 153.898438 92.398438 C 151.949219 92.25 151.699219 92.101562 151.449219 90.75 L 151.101562 89.25 L 151.050781 90.851562 C 151 92.148438 150.800781 92.5 150 92.5 C 149.25 92.5 149 92.148438 149 91.300781 C 149 90.601562 148.800781 89.898438 148.5 89.75 C 148.199219 89.550781 148 90.101562 148 90.949219 C 148 92.25 147.800781 92.5 146.75 92.5 C 145.550781 92.5 145.5 92.398438 145.5 89 C 145.5 85.851562 145.601562 85.5 146.5 85.5 C 147.25 85.5 147.5 85.851562 147.5 86.699219 Z M 163.050781 88.75 C 163.351562 92.101562 163.550781 91.949219 163.648438 88.25 C 163.75 86.050781 163.898438 85.75 164.898438 85.601562 C 165.949219 85.449219 166 85.601562 166 88.699219 C 166 91.398438 165.851562 92.050781 165.050781 92.5 C 162.550781 93.800781 160.75 92.300781 160.550781 88.851562 C 160.449219 86.148438 160.75 85.398438 161.898438 85.601562 C 162.550781 85.699219 162.800781 86.5 163.050781 88.75 Z M 170.851562 85.898438 C 171.25 86.148438 171.398438 87.449219 171.351562 89.5 L 171.25 92.75 L 166.75 92.75 L 166.601562 89.101562 L 166.449219 85.5 L 168.351562 85.5 C 169.398438 85.5 170.5 85.699219 170.851562 85.898438 Z M 173 92.25 C 173 92.648438 172.800781 93 172.5 93 C 172.25 93 172 92.648438 172 92.25 C 172 91.851562 172.25 91.5 172.5 91.5 C 172.800781 91.5 173 91.851562 173 92.25 Z M 173 92.25 "/>
<path style=" stroke:none;fill-rule:nonzero;fill:rgb(0%,0%,0%);fill-opacity:1;" d="M 168.5 87.5 C 168.5 87.75 168.75 88 169 88 C 169.300781 88 169.5 87.75 169.5 87.5 C 169.5 87.199219 169.300781 87 169 87 C 168.75 87 168.5 87.199219 168.5 87.5 Z M 168.5 87.5 "/>
<path style=" stroke:none;fill-rule:nonzero;fill:rgb(0%,0%,0%);fill-opacity:1;" d="M 168.800781 89.898438 C 168.699219 90.101562 168.75 90.601562 169.050781 91 C 169.398438 91.601562 169.5 91.5 169.5 90.601562 C 169.5 89.449219 169.25 89.199219 168.800781 89.898438 Z M 168.800781 89.898438 "/>
<path style=" stroke:none;fill-rule:nonzero;fill:rgb(0%,0%,0%);fill-opacity:1;" d="M 263.898438 130.300781 C 264.199219 130.898438 264.398438 131.449219 264.351562 131.550781 C 264.300781 131.648438 264.351562 131.699219 264.449219 131.601562 C 264.550781 131.550781 265.148438 131.898438 265.699219 132.351562 C 266.5 133.050781 266.449219 132.851562 265.5 131.75 C 263.5 129.351562 263.351562 129.199219 263.898438 130.300781 Z M 263.898438 130.300781 "/>
</g>
</svg>
