<?xml version="1.0" standalone="no"?>
<!DOCTYPE svg PUBLIC "-//W3C//DTD SVG 20010904//EN"
 "http://www.w3.org/TR/2001/REC-SVG-20010904/DTD/svg10.dtd">
<svg version="1.0" xmlns="http://www.w3.org/2000/svg"
 width="600.000000pt" height="600.000000pt" viewBox="0 0 600.000000 600.000000"
 preserveAspectRatio="xMidYMid meet">

<g transform="translate(0.000000,600.000000) scale(0.100000,-0.100000)"
fill="#000000" stroke="none">
<path d="M2511 4955 c-31 -25 -155 -94 -290 -161 -244 -121 -322 -171 -382
-246 -66 -81 -119 -167 -119 -193 0 -15 -4 -24 -10 -20 -6 4 -24 -23 -41 -62
-17 -37 -40 -88 -51 -113 -12 -25 -39 -81 -60 -125 -22 -44 -77 -163 -123
-265 -46 -102 -111 -243 -144 -315 -33 -71 -57 -133 -53 -137 5 -5 114 -54
243 -109 129 -55 269 -117 312 -136 l77 -36 -6 -982 c-4 -539 -4 -1002 0
-1028 l7 -47 42 0 c23 0 92 8 152 17 71 11 182 17 310 18 195 2 203 3 320 35
111 32 131 34 265 35 143 0 146 -1 225 -34 80 -35 81 -35 205 -30 69 2 229 2
355 -1 127 -3 277 -5 335 -5 l105 0 3 1011 2 1011 83 38 c45 21 185 82 311
136 127 55 233 102 238 107 4 4 -20 66 -53 137 -33 72 -87 189 -119 260 -32
72 -77 171 -101 220 -23 50 -75 160 -115 245 -39 85 -77 154 -83 152 -6 -1
-12 4 -12 10 -5 48 -19 79 -32 72 -7 -4 -9 -4 -5 1 18 19 -89 156 -172 220
-30 23 -149 89 -265 145 -222 110 -265 134 -332 187 l-42 34 -53 -30 c-86 -49
-155 -62 -344 -68 -236 -8 -381 14 -480 72 -23 14 -44 25 -46 24 -2 0 -27 -20
-57 -44z m774 -266 c5 -39 4 -55 -7 -66 -13 -12 -14 -10 -10 15 2 16 0 32 -5
35 -11 7 -4 67 7 67 5 0 11 -23 15 -51z m-87 -41 l-3 -81 -40 -14 c-22 -8 -76
-15 -120 -16 -64 -1 -91 4 -134 23 l-53 24 5 64 c3 38 10 68 18 73 8 5 85 9
172 9 l158 0 -3 -82z m36 45 c9 -56 7 -101 -4 -108 -6 -4 -10 9 -10 32 0 21
-3 55 -6 76 -4 22 -3 37 3 37 6 0 13 -17 17 -37z m-1357 -1635 c-3 -7 -5 -2
-5 12 0 14 2 19 5 13 2 -7 2 -19 0 -25z m2310 0 c-3 -8 -6 -5 -6 6 -1 11 2 17
5 13 3 -3 4 -12 1 -19z"/>
<path d="M2956 4633 c-1 -1 -16 -3 -34 -5 -25 -2 -32 -7 -32 -23 0 -16 2 -17
10 -5 9 13 10 13 11 0 0 -10 3 -8 9 5 l9 20 1 -20 1 -20 9 20 c6 15 9 16 9 4
1 -13 13 -16 64 -15 59 0 63 1 59 21 -3 18 -10 21 -59 20 -30 0 -56 -1 -57 -2z
m34 -18 c0 -2 -7 -5 -15 -9 -9 -3 -15 0 -15 9 0 9 6 12 15 9 8 -4 15 -7 15 -9z"/>
<path d="M3093 4621 c3 -36 27 -40 26 -4 -2 27 -2 27 -7 3 l-5 -25 -8 25 -8
25 2 -24z"/>
<path d="M3130 4614 c0 -31 23 -28 28 4 2 15 -2 22 -12 22 -11 0 -16 -9 -16
-26z"/>
</g>
</svg>
